<svg xmlns="http://www.w3.org/2000/svg" width="100" height="100" viewBox="0 0 100 100" fill="white">
  <path d="M50 0C22.4 0 0 22.4 0 50c0 22.1 14.3 40.8 34.2 47.4 2.5.5 3.4-1.1 3.4-2.4 0-1.2 0-4.4 0-8.5-13.9 3-16.8-6.7-16.8-6.7-2.3-5.8-5.6-7.3-5.6-7.3-4.5-3.1.3-3 .3-3 5 .4 7.6 5.1 7.6 5.1 4.4 7.6 11.6 5.4 14.4 4.1.4-3.2 1.7-5.4 3.1-6.7-11-1.2-22.6-5.5-22.6-24.5 0-5.4 1.9-9.8 5.1-13.3-.5-1.2-2.2-6.3.5-13.1 0 0 4.2-1.3 13.7 5.1 4-1.1 8.3-1.7 12.5-1.7 4.2 0 8.5.6 12.5 1.7 9.5-6.4 13.7-5.1 13.7-5.1 2.7 6.8 1 11.9.5 13.1 3.2 3.5 5.1 7.9 5.1 13.3 0 19-11.6 23.3-22.7 24.5 1.8 1.5 3.4 4.6 3.4 9.3 0 6.7 0 12.1 0 13.8 0 1.3.9 2.9 3.4 2.4C85.7 90.8 100 72.1 100 50c0-27.6-22.4-50-50-50z"/>
</svg>
