<svg xmlns="http://www.w3.org/2000/svg" width="100" height="100" viewBox="0 0 100 100">
  <path fill="#4285F4" d="M50 20c-10 0-18.5 3.5-25 10l-18-18C18.5 3 33.5 0 50 0s31.5 3 43 12l-18 18c-6.5-6.5-15-10-25-10z"/>
  <path fill="#34A853" d="M73 30l18-18c9 11.5 14.5 26.5 14.5 43 0 7.5-1.5 14.5-4 21L66 50c2-3 3-6.5 3-10 0-3.5-1-7-3-10z"/>
  <path fill="#FBBC05" d="M50 80c-8 0-15-2.5-20.5-7l-20.5 20.5C16.5 99.5 32 100 50 100c16.5 0 32-7 43-18.5L72.5 61C67 65.5 59 68 50 68V80z"/>
  <path fill="#EA4335" d="M10 50c0-3.5.5-7 1.5-10l-18-18C3.5 28.5 0 39 0 50c0 11 3.5 21.5 10 30l20.5-20.5C13.5 57 10 54 10 50z"/>
</svg>
