<svg xmlns="http://www.w3.org/2000/svg" width="100" height="100" viewBox="0 0 100 100" fill="white">
  <path d="M25 40c-3 0-5-2-5-5V25c0-3 2-5 5-5h10c3 0 5 2 5 5v10c0 3-2 5-5 5H25z"/>
  <path d="M40 75c-3 0-5-2-5-5V60c0-3 2-5 5-5h10c3 0 5 2 5 5v10c0 3-2 5-5 5H40z" opacity="0.8"/>
  <path d="M60 35c0 3 2 5 5 5h10c3 0 5-2 5-5V25c0-3-2-5-5-5H65c-3 0-5 2-5 5v10z" opacity="0.9"/>
  <path d="M60 65c0 3 2 5 5 5h5c3 0 5-2 5-5s-2-5-5-5h-5c-3 0-5 2-5 5z" opacity="0.7"/>
  <path d="M35 55c3 0 5-2 5-5V40c0-3-2-5-5-5H25c-3 0-5 2-5 5v10c0 3 2 5 5 5h10z" opacity="0.85"/>
</svg>
